<?xml version="1.0" encoding="iso-8859-1"?>
<!-- Uploaded to: SVG Repo, www.svgrepo.com, Generator: SVG Repo Mixer Tools -->
<!DOCTYPE svg PUBLIC "-//W3C//DTD SVG 1.1//EN" "http://www.w3.org/Graphics/SVG/1.1/DTD/svg11.dtd">
<svg fill="#000000" version="1.1" id="Capa_1" xmlns="http://www.w3.org/2000/svg" xmlns:xlink="http://www.w3.org/1999/xlink" 
	 width="800px" height="800px" viewBox="0 0 31.034 31.034"
	 xml:space="preserve">
<g>
	<g>
		<polygon points="28.902,9.468 28.902,8.822 31.034,8.822 31.034,7.965 0,7.965 0,8.822 0.018,8.822 0.018,15.813 0,15.813 
			0,16.666 31.034,16.666 31.034,15.813 28.902,15.813 28.902,15.431 2.185,15.431 2.185,15.152 2.148,15.152 2.148,14.988 
			28.902,14.988 28.902,14.63 2.16,14.63 2.16,14.497 2.148,14.497 2.148,14.333 2.16,14.333 2.16,14.275 28.902,14.275 
			28.902,13.78 2.114,13.78 2.114,13.691 2.098,13.691 2.098,13.527 2.114,13.527 2.114,13.428 28.902,13.428 28.902,12.98 
			2.09,12.98 2.09,12.625 28.902,12.625 28.902,12.201 2.09,12.201 2.09,11.849 28.902,11.849 28.902,11.4 2.137,11.4 2.137,11.046 
			28.902,11.046 28.902,10.6 2.114,10.6 2.114,10.246 28.902,10.246 28.902,9.821 2.114,9.821 2.114,9.468 		"/>
		<polygon points="0,17.751 0.018,17.751 0.018,22.149 0,22.149 0,22.688 31.034,22.688 31.034,22.149 28.902,22.149 28.902,21.668 
			1.705,21.668 1.705,21.313 28.902,21.313 28.902,20.89 1.705,20.89 1.705,20.537 28.902,20.537 28.902,20.088 1.752,20.088 
			1.752,19.965 1.745,19.965 1.745,19.802 1.752,19.802 1.752,19.735 28.902,19.735 28.902,19.288 1.729,19.288 1.729,18.935 
			28.902,18.935 28.902,18.511 1.729,18.511 1.729,18.156 28.902,18.156 28.902,17.751 31.034,17.751 31.034,17.212 0,17.212 		"/>
		<polygon points="0,24.101 0.018,24.101 0.018,28.498 0,28.498 0,29.037 31.034,29.037 31.034,28.498 28.902,28.498 28.902,28.078 
			1.548,28.078 1.548,27.724 28.902,27.724 28.902,27.3 1.548,27.3 1.548,26.947 28.902,26.947 28.902,26.498 1.595,26.498 
			1.595,26.414 1.594,26.414 1.594,26.249 1.595,26.249 1.595,26.146 28.902,26.146 28.902,25.698 1.572,25.698 1.572,25.345 
			28.902,25.345 28.902,24.92 1.572,24.92 1.572,24.565 28.902,24.565 28.902,24.101 31.034,24.101 31.034,23.562 0,23.562 		"/>
		<polygon points="27.104,6.934 27.092,6.934 27.092,2.535 27.104,2.535 27.104,1.997 3.125,1.997 3.125,2.535 4.771,2.535 
			4.771,2.916 25.695,2.916 25.695,3.269 4.771,3.269 4.771,3.694 25.695,3.694 25.695,4.047 4.771,4.047 4.771,4.495 25.648,4.495 
			25.648,4.688 25.678,4.688 25.678,4.85 4.771,4.85 4.771,5.296 25.672,5.296 25.672,5.445 25.678,5.445 25.678,5.604 
			25.672,5.604 25.672,5.65 4.771,5.65 4.771,6.074 25.672,6.074 25.672,6.251 25.678,6.251 25.678,6.411 25.672,6.411 
			25.672,6.428 4.771,6.428 4.771,6.934 3.125,6.934 3.125,7.473 27.104,7.473 		"/>
	</g>
</g>
</svg>